<svg width="228" height="28" viewBox="0 0 228 28" fill="none" xmlns="http://www.w3.org/2000/svg">
<path d="M1.15562 22.2046V4.27493H8.92981C10.2955 4.27493 11.4424 4.45877 12.3704 4.82647C13.3043 5.19417 14.0076 5.71362 14.4803 6.38481C14.9589 7.05601 15.1982 7.84685 15.1982 8.75734C15.1982 9.41686 15.0523 10.018 14.7605 10.5608C14.4745 11.1036 14.0718 11.5589 13.5523 11.9265C13.0329 12.2884 12.4259 12.5394 11.7313 12.6795V12.8545C12.5017 12.8837 13.2021 13.0793 13.8325 13.4411C14.4628 13.7971 14.9647 14.2903 15.3383 14.9207C15.7118 15.5452 15.8986 16.2806 15.8986 17.1269C15.8986 18.1074 15.6418 18.9799 15.1282 19.7445C14.6204 20.5091 13.8967 21.1102 12.957 21.548C12.0173 21.9857 10.8967 22.2046 9.59517 22.2046H1.15562ZM6.02325 18.3175H8.29947C9.11658 18.3175 9.72941 18.1657 10.138 17.8622C10.5465 17.5529 10.7508 17.0977 10.7508 16.4965C10.7508 16.0763 10.6545 15.7203 10.4619 15.4284C10.2693 15.1366 9.99497 14.9148 9.63895 14.7631C9.28876 14.6113 8.86561 14.5355 8.36951 14.5355H6.02325V18.3175ZM6.02325 11.5238H8.01932C8.44539 11.5238 8.82184 11.4567 9.14868 11.3225C9.47552 11.1882 9.72941 10.9956 9.91034 10.7447C10.0971 10.4879 10.1905 10.1756 10.1905 9.80791C10.1905 9.25344 9.99205 8.8303 9.59517 8.53847C9.19829 8.24081 8.69635 8.09198 8.08936 8.09198H6.02325V11.5238ZM17.183 22.2046V4.27493H24.9222C26.2529 4.27493 27.4173 4.51714 28.4153 5.00157C29.4134 5.486 30.1896 6.18345 30.7441 7.09395C31.2985 8.00444 31.5758 9.09586 31.5758 10.3682C31.5758 11.6522 31.2898 12.7349 30.7178 13.6162C30.1517 14.4975 29.355 15.1629 28.3278 15.6123C27.3064 16.0617 26.1128 16.2864 24.7471 16.2864H20.1246V12.5044H23.7666C24.3385 12.5044 24.8259 12.4343 25.2286 12.2942C25.6372 12.1483 25.9494 11.9178 26.1654 11.6026C26.3871 11.2875 26.498 10.876 26.498 10.3682C26.498 9.8546 26.3871 9.43729 26.1654 9.11629C25.9494 8.78944 25.6372 8.55015 25.2286 8.3984C24.8259 8.24081 24.3385 8.16202 23.7666 8.16202H22.0506V22.2046H17.183ZM27.6887 13.9752L32.1711 22.2046H26.8832L22.5059 13.9752H27.6887ZM37.8679 22.2046H32.6151L38.5333 4.27493H45.1869L51.105 22.2046H45.8522L41.9301 9.21259H41.79L37.8679 22.2046ZM36.8874 15.1308H46.7627V18.7727H36.8874V15.1308ZM67.905 4.27493V22.2046H63.8428L57.3644 12.7845H57.2593V22.2046H52.3917V4.27493H56.5239L62.8973 13.66H63.0374V4.27493H67.905ZM76.666 22.2046H69.7673V4.27493H76.596C78.4403 4.27493 80.0337 4.63387 81.3761 5.35176C82.7243 6.06381 83.7632 7.09103 84.4927 8.43342C85.2281 9.76997 85.5958 11.3721 85.5958 13.2398C85.5958 15.1074 85.231 16.7125 84.5015 18.0549C83.7719 19.3914 82.7389 20.4186 81.4023 21.1365C80.0658 21.8486 78.487 22.2046 76.666 22.2046ZM74.6349 18.0724H76.4909C77.3781 18.0724 78.1339 17.9294 78.7584 17.6434C79.3887 17.3574 79.8673 16.8642 80.1942 16.1638C80.5268 15.4635 80.6932 14.4888 80.6932 13.2398C80.6932 11.9908 80.5239 11.0161 80.1854 10.3157C79.8527 9.6153 79.3625 9.12212 78.7146 8.83613C78.0726 8.55015 77.2847 8.40715 76.3508 8.40715H74.6349V18.0724Z" fill="white"/>
<path d="M87.2218 2.53541V1.22803H92.4163V2.53541H90.6186V7.20459H89.0194V2.53541H87.2218ZM92.8801 1.22803H94.8996L96.2887 4.61319H96.3587L97.7478 1.22803H99.7672V7.20459H98.1797V3.74939H98.133L96.8023 7.1579H95.8451L94.5144 3.72605H94.4677V7.20459H92.8801V1.22803Z" fill="white"/>
</svg>
